<?xml version="1.0" standalone="no"?>
<!DOCTYPE svg PUBLIC "-//W3C//DTD SVG 20010904//EN"
 "http://www.w3.org/TR/2001/REC-SVG-20010904/DTD/svg10.dtd">
<svg version="1.0" xmlns="http://www.w3.org/2000/svg"
 width="1222.000000pt" height="1280.000000pt" viewBox="0 0 1222.000000 1280.000000"
 preserveAspectRatio="xMidYMid meet">
<metadata>
Created by potrace 1.15, written by Peter Selinger 2001-2017
</metadata>
<g transform="translate(0.000000,1280.000000) scale(0.100000,-0.100000)"
fill="#009688" stroke="none">
<path d="M7295 12791 c-11 -5 -39 -14 -62 -21 -50 -15 -111 -63 -125 -99 -6
-14 -14 -75 -19 -136 -5 -60 -14 -159 -19 -220 -5 -60 -14 -164 -19 -230 -24
-299 -105 -812 -171 -1085 -37 -153 -89 -327 -120 -405 -4 -11 -18 -47 -30
-80 -143 -387 -362 -685 -695 -945 -17 -14 -49 -38 -70 -55 -204 -159 -431
-374 -507 -480 -53 -75 -111 -173 -137 -235 -13 -30 -34 -77 -46 -105 -57
-126 -65 -146 -65 -158 0 -7 -4 -17 -8 -22 -5 -6 -16 -29 -25 -52 -9 -23 -26
-63 -37 -88 -11 -25 -29 -65 -40 -90 -11 -25 -20 -51 -20 -58 0 -7 -4 -17 -9
-22 -4 -6 -27 -56 -49 -111 -23 -56 -55 -130 -71 -165 -16 -35 -39 -86 -51
-114 -34 -77 -235 -482 -276 -555 -19 -36 -50 -92 -68 -125 -18 -33 -43 -77
-55 -97 -11 -21 -29 -53 -40 -71 -34 -60 -223 -351 -270 -416 -207 -286 -444
-512 -621 -596 -102 -49 -146 -57 -325 -64 l-170 -6 -3 -2622 -2 -2621 31 -11
c18 -6 43 -11 57 -11 13 0 41 -4 61 -10 20 -5 140 -28 266 -51 127 -22 286
-51 355 -65 69 -13 152 -29 185 -34 95 -17 166 -30 215 -40 25 -5 108 -21 185
-35 77 -14 164 -30 193 -35 28 -6 77 -14 107 -20 62 -11 105 -19 290 -55 72
-14 157 -30 190 -36 33 -6 80 -14 105 -19 25 -5 72 -13 105 -19 33 -6 94 -17
135 -25 135 -26 263 -45 350 -50 47 -3 139 -10 205 -16 867 -74 1577 -104
2430 -104 610 0 967 16 1220 53 39 6 97 15 130 20 33 5 81 14 105 21 25 6 63
16 85 21 98 25 121 33 200 70 122 59 259 152 450 308 75 61 288 286 342 362
144 199 146 207 147 589 1 240 4 313 16 345 29 80 113 184 313 385 242 243
302 316 359 436 39 83 42 94 42 174 0 90 -21 177 -72 300 -5 14 -27 68 -47
120 -20 52 -41 104 -45 115 -4 11 -13 36 -20 55 -11 33 -22 60 -41 105 -14 32
-37 146 -40 195 -7 129 31 194 280 480 161 185 241 300 241 348 0 12 5 24 10
27 6 3 10 30 10 60 0 30 -4 57 -10 60 -5 3 -10 19 -10 34 0 15 -4 31 -8 37 -5
5 -15 25 -23 44 -14 38 -100 187 -194 340 -55 89 -111 197 -148 282 -9 21 -21
66 -27 101 -17 106 7 153 220 442 115 157 145 204 192 311 16 35 2 201 -22
259 -4 11 -13 40 -20 65 -7 25 -35 92 -62 149 -181 382 -486 737 -728 848 -87
40 -258 75 -450 94 -58 5 -152 14 -210 20 -342 33 -1525 48 -2288 29 -276 -7
-505 -11 -507 -8 -3 3 -15 32 -27 64 -57 156 -24 444 83 734 34 91 55 142 70
172 5 10 9 22 9 28 0 5 20 54 44 107 24 54 56 125 71 158 15 33 117 242 227
465 247 500 229 461 278 605 56 163 67 200 80 270 6 33 15 74 21 91 5 17 9 40
9 52 0 11 4 31 9 44 25 62 43 335 39 568 -5 245 -25 425 -58 530 -4 14 -13 52
-20 85 -22 104 -76 249 -137 370 -108 213 -310 424 -533 557 -153 91 -326 155
-485 180 -86 13 -286 19 -310 9z"/>
<path d="M430 6135 c-74 -14 -84 -17 -160 -53 -102 -48 -217 -188 -254 -311
-15 -51 -15 -5091 0 -5142 36 -118 148 -257 249 -310 130 -68 70 -64 1015 -64
792 0 859 1 911 18 163 51 296 185 351 352 19 59 19 5091 0 5150 -28 84 -69
152 -132 215 -89 90 -162 126 -301 149 -98 16 -1592 13 -1679 -4z"/>
</g>
</svg>
